<svg width="20" height="20" viewBox="0 0 20 20" fill="none" xmlns="http://www.w3.org/2000/svg">
<path d="M17.7646 5.95108L17.3533 5.23725C17.0422 4.69739 16.8867 4.42746 16.622 4.31982C16.3574 4.21218 16.0581 4.29712 15.4595 4.46699L14.4426 4.7534C14.0604 4.84153 13.6595 4.79154 13.3105 4.61225L13.0298 4.45027C12.7305 4.25861 12.5004 3.97603 12.373 3.64387L12.0947 2.81272C11.9117 2.2627 11.8202 1.98769 11.6024 1.83039C11.3846 1.6731 11.0953 1.6731 10.5166 1.6731H9.58765C9.00902 1.6731 8.71971 1.6731 8.50189 1.83039C8.28408 1.98769 8.19259 2.2627 8.00961 2.81272L7.73132 3.64387C7.60391 3.97603 7.37375 4.25861 7.07451 4.45027L6.79378 4.61225C6.44482 4.79154 6.04386 4.84153 5.66169 4.7534L4.64483 4.46699C4.04622 4.29712 3.74691 4.21218 3.48227 4.31982C3.21762 4.42746 3.06208 4.69739 2.751 5.23725L2.33968 5.95108C2.04809 6.45712 1.90229 6.71014 1.93059 6.97949C1.95889 7.24884 2.15406 7.4659 2.54442 7.90002L3.40363 8.86061C3.61362 9.12646 3.76271 9.58976 3.76271 10.0063C3.76271 10.4231 3.61367 10.8863 3.40365 11.1522L2.54443 12.1128C2.15407 12.5469 1.95889 12.7639 1.93059 13.0333C1.90229 13.3026 2.04809 13.5557 2.33968 14.0617L2.75099 14.7755C3.06206 15.3154 3.21762 15.5853 3.48227 15.693C3.74692 15.8006 4.04623 15.7157 4.64485 15.5458L5.66166 15.2594C6.0439 15.1712 6.44493 15.2212 6.79393 15.4006L7.07462 15.5626C7.3738 15.7542 7.60391 16.0368 7.73129 16.3689L8.00961 17.2001C8.19259 17.7502 8.28408 18.0252 8.50189 18.1825C8.71971 18.3398 9.00902 18.3398 9.58765 18.3398H10.5166C11.0953 18.3398 11.3846 18.3398 11.6024 18.1825C11.8202 18.0252 11.9117 17.7502 12.0947 17.2001L12.373 16.3689C12.5004 16.0368 12.7305 15.7542 13.0297 15.5626L13.3104 15.4006C13.6594 15.2212 14.0604 15.1712 14.4426 15.2594L15.4594 15.5458C16.0581 15.7157 16.3574 15.8006 16.622 15.693C16.8867 15.5853 17.0422 15.3154 17.3533 14.7755L17.3533 14.7755L17.7646 14.0617C18.0562 13.5557 18.202 13.3026 18.1737 13.0333C18.1454 12.7639 17.9502 12.5469 17.5599 12.1128L16.7006 11.1522C16.4906 10.8863 16.3416 10.4231 16.3416 10.0063C16.3416 9.58976 16.4907 9.12646 16.7007 8.86061L17.5599 7.90002C17.9502 7.4659 18.1454 7.24884 18.1737 6.97949C18.202 6.71014 18.0562 6.45712 17.7646 5.95108Z" stroke="currentColor" stroke-width="1.5" stroke-linecap="round"/>
<path d="M12.9329 9.99992C12.9329 11.6107 11.6271 12.9166 10.0163 12.9166C8.40545 12.9166 7.09961 11.6107 7.09961 9.99992C7.09961 8.38909 8.40545 7.08325 10.0163 7.08325C11.6271 7.08325 12.9329 8.38909 12.9329 9.99992Z" stroke="currentColor" stroke-width="1.5"/>
</svg>
