<svg width="24" height="25" viewBox="0 0 24 25" fill="none" xmlns="http://www.w3.org/2000/svg">
<g clip-path="url(#clip0_463_4752)">
<path d="M23.766 12.994C23.766 12.1783 23.6999 11.3582 23.5588 10.5557H12.24V15.1766H18.7217C18.4528 16.667 17.5885 17.9854 16.323 18.8232V21.8215H20.19C22.4608 19.7315 23.766 16.645 23.766 12.994Z" fill="#4285F4"/>
<path d="M12.24 24.7184C15.4764 24.7184 18.2058 23.6557 20.1944 21.8214L16.3274 18.8231C15.2516 19.555 13.8626 19.9695 12.2444 19.9695C9.11376 19.9695 6.45934 17.8574 5.50693 15.0178H1.51648V18.1088C3.55359 22.1609 7.70278 24.7184 12.24 24.7184Z" fill="#34A853"/>
<path d="M5.50253 15.0177C4.99987 13.5274 4.99987 11.9136 5.50253 10.4232V7.33228H1.51649C-0.18551 10.7231 -0.18551 14.7179 1.51649 18.1087L5.50253 15.0177Z" fill="#FBBC04"/>
<path d="M12.24 5.46719C13.9508 5.44073 15.6043 6.0845 16.8433 7.2662L20.2694 3.84015C18.1 1.80303 15.2207 0.683063 12.24 0.718338C7.70277 0.718338 3.55359 3.27575 1.51648 7.33234L5.50252 10.4233C6.45052 7.57926 9.10935 5.46719 12.24 5.46719Z" fill="#EA4335"/>
</g>
<defs>
<clipPath id="clip0_463_4752">
<rect width="24" height="24" fill="white" transform="translate(0 0.717529)"/>
</clipPath>
</defs>
</svg>
