<svg width="20" height="20" viewBox="0 0 20 20" fill="none" xmlns="http://www.w3.org/2000/svg">
<path d="M12.0834 7.91675H12.0909" stroke="currentColor" stroke-width="2" stroke-linecap="round" stroke-linejoin="round"/>
<path d="M12.0834 5C13.6618 5 15.0001 6.34433 15.0001 7.97526C15.0001 9.63216 13.64 10.7949 12.3838 11.5856C12.2923 11.6387 12.1888 11.6667 12.0834 11.6667C11.9781 11.6667 11.8745 11.6387 11.783 11.5856C10.5291 10.7872 9.16675 9.63789 9.16675 7.97526C9.16675 6.34433 10.505 5 12.0834 5Z" stroke="currentColor" stroke-width="1.5"/>
<path d="M2.08337 10C2.08337 6.26809 2.08337 4.40211 3.24274 3.24274C4.40211 2.08337 6.26809 2.08337 10 2.08337C13.732 2.08337 15.598 2.08337 16.7573 3.24274C17.9167 4.40211 17.9167 6.26809 17.9167 10C17.9167 13.732 17.9167 15.598 16.7573 16.7573C15.598 17.9167 13.732 17.9167 10 17.9167C6.26809 17.9167 4.40211 17.9167 3.24274 16.7573C2.08337 15.598 2.08337 13.732 2.08337 10Z" stroke="currentColor" stroke-width="1.5"/>
<path d="M14.1667 17.5L2.5 5.83337" stroke="currentColor" stroke-width="1.5" stroke-linecap="round" stroke-linejoin="round"/>
<path d="M8.33337 11.6667L3.33337 16.6667" stroke="currentColor" stroke-width="1.5" stroke-linecap="round" stroke-linejoin="round"/>
</svg>
