<svg width="20" height="20" viewBox="0 0 20 20" fill="none" xmlns="http://www.w3.org/2000/svg">
<g clip-path="url(#clip0_457_5029)">
<path d="M14.5833 15.8333V18.3333" stroke="currentColor" stroke-width="1.5" stroke-linecap="round" stroke-linejoin="round"/>
<path d="M5.41663 15.8333V18.3333" stroke="currentColor" stroke-width="1.5" stroke-linecap="round" stroke-linejoin="round"/>
<path d="M3.33325 8.33329C3.33325 5.1906 3.33325 3.61925 4.30956 2.64294C5.28587 1.66663 6.85722 1.66663 9.99992 1.66663C13.1426 1.66663 14.714 1.66663 15.6903 2.64294C16.6666 3.61925 16.6666 5.1906 16.6666 8.33329V10.8333C16.6666 13.1903 16.6666 14.3688 15.9344 15.1011C15.2021 15.8333 14.0236 15.8333 11.6666 15.8333H8.33325C5.97623 15.8333 4.79772 15.8333 4.06548 15.1011C3.33325 14.3688 3.33325 13.1903 3.33325 10.8333V8.33329Z" stroke="currentColor" stroke-width="1.5" stroke-linejoin="round"/>
<path d="M5.83325 13.3333H6.66658" stroke="currentColor" stroke-width="1.5" stroke-linecap="round" stroke-linejoin="round"/>
<path d="M13.3333 13.3333H14.1666" stroke="currentColor" stroke-width="1.5" stroke-linecap="round" stroke-linejoin="round"/>
<path d="M1.66663 6.66663L1.66663 8.33329" stroke="currentColor" stroke-width="1.5" stroke-linecap="round" stroke-linejoin="round"/>
<path d="M18.3333 6.66663L18.3333 8.33329" stroke="currentColor" stroke-width="1.5" stroke-linecap="round" stroke-linejoin="round"/>
<path d="M3.75 4.16663L16.25 4.16663" stroke="currentColor" stroke-width="1.5" stroke-linecap="round"/>
<path d="M3.75 10.8333L16.25 10.8333" stroke="currentColor" stroke-width="1.5" stroke-linecap="round"/>
<path d="M10 10.8333V4.16663" stroke="currentColor" stroke-width="1.5" stroke-linecap="round" stroke-linejoin="round"/>
</g>
<defs>
<clipPath id="clip0_457_5029">
<rect width="20" height="20" fill="white"/>
</clipPath>
</defs>
</svg>
