<svg width="18" height="16" viewBox="0 0 18 16" fill="none" xmlns="http://www.w3.org/2000/svg">
<g opacity="0.4">
<path d="M10.8071 7.17786C10.6558 7.39997 10.5802 7.51103 10.6089 7.62096C10.6376 7.73088 10.7383 7.78112 10.9398 7.88158C11.3591 8.09065 11.832 8.20825 12.3324 8.20825C14.0583 8.20825 15.4574 6.80914 15.4574 5.08325C15.4574 3.35736 14.0583 1.95825 12.3324 1.95825C12.1442 1.95825 11.9599 1.97489 11.7808 2.00678C11.5591 2.04626 11.4483 2.066 11.3897 2.16348C11.3312 2.26097 11.3726 2.389 11.4554 2.64506C11.619 3.15058 11.7074 3.68993 11.7074 4.24992C11.7074 5.33549 11.3753 6.34349 10.8071 7.17786Z" fill="currentColor"/>
<path d="M14.5693 14.875C15.6959 14.875 16.5723 14.3937 17.301 13.793C17.7328 13.4369 18.0157 12.9784 17.9474 12.4375C17.8861 11.9517 17.5577 11.5901 17.2744 11.3501C16.8102 10.9569 16.1331 10.6268 15.7064 10.4188C15.6122 10.3728 15.5302 10.3328 15.4654 10.2994C14.634 9.87102 13.7193 9.60627 12.785 9.50518C12.1824 9.43999 11.8811 9.40739 11.8123 9.58733C11.7434 9.76727 12.0117 9.96004 12.5482 10.3456C12.752 10.492 12.9492 10.6489 13.1222 10.8122C13.5116 11.1798 14.0826 11.8414 14.1903 12.7911C14.2402 13.2312 14.1824 13.6367 14.0525 14.0031C13.8977 14.4394 13.8204 14.6575 13.8873 14.7609C13.8916 14.7675 13.8942 14.7712 13.899 14.7774C13.974 14.875 14.1724 14.875 14.5693 14.875Z" fill="currentColor"/>
</g>
<path d="M10.5888 10.6124L10.5889 10.6124C11.0491 10.8626 11.7711 11.2549 12.265 11.7211C12.5725 12.0114 12.8906 12.4165 12.949 12.9318C13.0122 13.4893 12.7555 13.9926 12.2943 14.4164C11.5201 15.1276 10.5787 15.7083 9.35778 15.7083H3.64224C2.42129 15.7083 1.47995 15.1276 0.70576 14.4164C0.244528 13.9926 -0.0122165 13.4893 0.0509806 12.9318C0.109385 12.4165 0.427506 12.0114 0.735034 11.7211C1.22894 11.2549 1.95089 10.8626 2.41116 10.6124L2.41116 10.6124C2.51364 10.5567 2.60314 10.5081 2.67427 10.4672C5.01729 9.12193 7.98273 9.12192 10.3258 10.4672C10.3969 10.5081 10.4864 10.5567 10.5888 10.6124Z" fill="currentColor"/>
<path d="M2.5415 4.24996C2.5415 2.06383 4.31371 0.291626 6.49984 0.291626C8.68596 0.291626 10.4582 2.06383 10.4582 4.24996C10.4582 6.43609 8.68596 8.20829 6.49984 8.20829C4.31371 8.20829 2.5415 6.43609 2.5415 4.24996Z" fill="currentColor"/>
</svg>
