<?xml version="1.0" encoding="UTF-8"?>
<!-- This file is generated by npm run build:icons -->
<svg xmlns="http://www.w3.org/2000/svg" xmlns:xlink="http://www.w3.org/1999/xlink" width="0" height="0">
<defs>
<symbol viewBox="0 0 15 15" fill="none" id="arrow-left">
  <path     fill-rule="evenodd"
    clip-rule="evenodd"
    d="M6.85355 3.14645C7.04882 3.34171 7.04882 3.65829 6.85355 3.85355L3.70711 7H12.5C12.7761 7 13 7.22386 13 7.5C13 7.77614 12.7761 8 12.5 8H3.70711L6.85355 11.1464C7.04882 11.3417 7.04882 11.6583 6.85355 11.8536C6.65829 12.0488 6.34171 12.0488 6.14645 11.8536L2.14645 7.85355C1.95118 7.65829 1.95118 7.34171 2.14645 7.14645L6.14645 3.14645C6.34171 2.95118 6.65829 2.95118 6.85355 3.14645Z"
    fill="currentColor"
  ></path>
</symbol>
<symbol fill="none" viewBox="0 0 24 24" strokeWidth="{1.5}" stroke="currentColor" className="w-6 h-6" id="arrow-right-rec">
  <path strokeLinecap="round" strokeLinejoin="round" d="M15.75 9V5.25A2.25 2.25 0 0013.5 3h-6a2.25 2.25 0 00-2.25 2.25v13.5A2.25 2.25 0 007.5 21h6a2.25 2.25 0 002.25-2.25V15m3 0l3-3m0 0l-3-3m3 3H9" ></path>
</symbol>
<symbol viewBox="0 0 15 15" fill="none" id="arrow-right">
  <path     fill-rule="evenodd"
    clip-rule="evenodd"
    d="M8.14645 3.14645C8.34171 2.95118 8.65829 2.95118 8.85355 3.14645L12.8536 7.14645C13.0488 7.34171 13.0488 7.65829 12.8536 7.85355L8.85355 11.8536C8.65829 12.0488 8.34171 12.0488 8.14645 11.8536C7.95118 11.6583 7.95118 11.3417 8.14645 11.1464L11.2929 8H2.5C2.22386 8 2 7.77614 2 7.5C2 7.22386 2.22386 7 2.5 7H11.2929L8.14645 3.85355C7.95118 3.65829 7.95118 3.34171 8.14645 3.14645Z"
    fill="currentColor"
  ></path>
</symbol>
<symbol viewBox="0 0 24 24" fill="none" stroke="currentColor" stroke-width="2" stroke-linecap="round" stroke-linejoin="round" class="lucide lucide-arrow-up-down" id="arrow-up-down"><path d="m21 16-4 4-4-4"></path><path d="M17 20V4"></path><path d="m3 8 4-4 4 4"></path><path d="M7 4v16"></path></symbol>
<symbol viewBox="0 0 15 15" fill="none" id="avatar">
  <path     fill-rule="evenodd"
    clip-rule="evenodd"
    d="M0.877014 7.49988C0.877014 3.84219 3.84216 0.877045 7.49985 0.877045C11.1575 0.877045 14.1227 3.84219 14.1227 7.49988C14.1227 11.1575 11.1575 14.1227 7.49985 14.1227C3.84216 14.1227 0.877014 11.1575 0.877014 7.49988ZM7.49985 1.82704C4.36683 1.82704 1.82701 4.36686 1.82701 7.49988C1.82701 8.97196 2.38774 10.3131 3.30727 11.3213C4.19074 9.94119 5.73818 9.02499 7.50023 9.02499C9.26206 9.02499 10.8093 9.94097 11.6929 11.3208C12.6121 10.3127 13.1727 8.97172 13.1727 7.49988C13.1727 4.36686 10.6328 1.82704 7.49985 1.82704ZM10.9818 11.9787C10.2839 10.7795 8.9857 9.97499 7.50023 9.97499C6.01458 9.97499 4.71624 10.7797 4.01845 11.9791C4.97952 12.7272 6.18765 13.1727 7.49985 13.1727C8.81227 13.1727 10.0206 12.727 10.9818 11.9787ZM5.14999 6.50487C5.14999 5.207 6.20212 4.15487 7.49999 4.15487C8.79786 4.15487 9.84999 5.207 9.84999 6.50487C9.84999 7.80274 8.79786 8.85487 7.49999 8.85487C6.20212 8.85487 5.14999 7.80274 5.14999 6.50487ZM7.49999 5.10487C6.72679 5.10487 6.09999 5.73167 6.09999 6.50487C6.09999 7.27807 6.72679 7.90487 7.49999 7.90487C8.27319 7.90487 8.89999 7.27807 8.89999 6.50487C8.89999 5.73167 8.27319 5.10487 7.49999 5.10487Z"
    fill="currentColor"
  ></path>
</symbol>
<symbol viewBox="0 0 15 15" fill="none" id="caret-sort"><path d="M4.93179 5.43179C4.75605 5.60753 4.75605 5.89245 4.93179 6.06819C5.10753 6.24392 5.39245 6.24392 5.56819 6.06819L7.49999 4.13638L9.43179 6.06819C9.60753 6.24392 9.89245 6.24392 10.0682 6.06819C10.2439 5.89245 10.2439 5.60753 10.0682 5.43179L7.81819 3.18179C7.73379 3.0974 7.61933 3.04999 7.49999 3.04999C7.38064 3.04999 7.26618 3.0974 7.18179 3.18179L4.93179 5.43179ZM10.0682 9.56819C10.2439 9.39245 10.2439 9.10753 10.0682 8.93179C9.89245 8.75606 9.60753 8.75606 9.43179 8.93179L7.49999 10.8636L5.56819 8.93179C5.39245 8.75606 5.10753 8.75606 4.93179 8.93179C4.75605 9.10753 4.75605 9.39245 4.93179 9.56819L7.18179 11.8182C7.35753 11.9939 7.64245 11.9939 7.81819 11.8182L10.0682 9.56819Z" fill="currentColor" fill-rule="evenodd" clip-rule="evenodd"></path></symbol>
<symbol viewBox="0 0 15 15" fill="none" id="check">
  <path     fill-rule="evenodd"
    clip-rule="evenodd"
    d="M11.4669 3.72684C11.7558 3.91574 11.8369 4.30308 11.648 4.59198L7.39799 11.092C7.29783 11.2452 7.13556 11.3467 6.95402 11.3699C6.77247 11.3931 6.58989 11.3355 6.45446 11.2124L3.70446 8.71241C3.44905 8.48022 3.43023 8.08494 3.66242 7.82953C3.89461 7.57412 4.28989 7.55529 4.5453 7.78749L6.75292 9.79441L10.6018 3.90792C10.7907 3.61902 11.178 3.53795 11.4669 3.72684Z"
    fill="currentColor"
  ></path>
</symbol>
<symbol viewBox="0 0 15 15" fill="none" id="chevron-left"><path d="M8.84182 3.13514C9.04327 3.32401 9.05348 3.64042 8.86462 3.84188L5.43521 7.49991L8.86462 11.1579C9.05348 11.3594 9.04327 11.6758 8.84182 11.8647C8.64036 12.0535 8.32394 12.0433 8.13508 11.8419L4.38508 7.84188C4.20477 7.64955 4.20477 7.35027 4.38508 7.15794L8.13508 3.15794C8.32394 2.95648 8.64036 2.94628 8.84182 3.13514Z" fill="currentColor" fill-rule="evenodd" clip-rule="evenodd"></path></symbol>
<symbol viewBox="0 0 15 15" fill="none" id="chevron-right"><path d="M6.1584 3.13508C6.35985 2.94621 6.67627 2.95642 6.86514 3.15788L10.6151 7.15788C10.7954 7.3502 10.7954 7.64949 10.6151 7.84182L6.86514 11.8418C6.67627 12.0433 6.35985 12.0535 6.1584 11.8646C5.95694 11.6757 5.94673 11.3593 6.1356 11.1579L9.565 7.49985L6.1356 3.84182C5.94673 3.64036 5.95694 3.32394 6.1584 3.13508Z" fill="currentColor" fill-rule="evenodd" clip-rule="evenodd"></path></symbol>
<symbol viewBox="0 0 20 20" fill="none" id="cog">
<path d="M17.7646 5.95108L17.3533 5.23725C17.0422 4.69739 16.8867 4.42746 16.622 4.31982C16.3574 4.21218 16.0581 4.29712 15.4595 4.46699L14.4426 4.7534C14.0604 4.84153 13.6595 4.79154 13.3105 4.61225L13.0298 4.45027C12.7305 4.25861 12.5004 3.97603 12.373 3.64387L12.0947 2.81272C11.9117 2.2627 11.8202 1.98769 11.6024 1.83039C11.3846 1.6731 11.0953 1.6731 10.5166 1.6731H9.58765C9.00902 1.6731 8.71971 1.6731 8.50189 1.83039C8.28408 1.98769 8.19259 2.2627 8.00961 2.81272L7.73132 3.64387C7.60391 3.97603 7.37375 4.25861 7.07451 4.45027L6.79378 4.61225C6.44482 4.79154 6.04386 4.84153 5.66169 4.7534L4.64483 4.46699C4.04622 4.29712 3.74691 4.21218 3.48227 4.31982C3.21762 4.42746 3.06208 4.69739 2.751 5.23725L2.33968 5.95108C2.04809 6.45712 1.90229 6.71014 1.93059 6.97949C1.95889 7.24884 2.15406 7.4659 2.54442 7.90002L3.40363 8.86061C3.61362 9.12646 3.76271 9.58976 3.76271 10.0063C3.76271 10.4231 3.61367 10.8863 3.40365 11.1522L2.54443 12.1128C2.15407 12.5469 1.95889 12.7639 1.93059 13.0333C1.90229 13.3026 2.04809 13.5557 2.33968 14.0617L2.75099 14.7755C3.06206 15.3154 3.21762 15.5853 3.48227 15.693C3.74692 15.8006 4.04623 15.7157 4.64485 15.5458L5.66166 15.2594C6.0439 15.1712 6.44493 15.2212 6.79393 15.4006L7.07462 15.5626C7.3738 15.7542 7.60391 16.0368 7.73129 16.3689L8.00961 17.2001C8.19259 17.7502 8.28408 18.0252 8.50189 18.1825C8.71971 18.3398 9.00902 18.3398 9.58765 18.3398H10.5166C11.0953 18.3398 11.3846 18.3398 11.6024 18.1825C11.8202 18.0252 11.9117 17.7502 12.0947 17.2001L12.373 16.3689C12.5004 16.0368 12.7305 15.7542 13.0297 15.5626L13.3104 15.4006C13.6594 15.2212 14.0604 15.1712 14.4426 15.2594L15.4594 15.5458C16.0581 15.7157 16.3574 15.8006 16.622 15.693C16.8867 15.5853 17.0422 15.3154 17.3533 14.7755L17.3533 14.7755L17.7646 14.0617C18.0562 13.5557 18.202 13.3026 18.1737 13.0333C18.1454 12.7639 17.9502 12.5469 17.5599 12.1128L16.7006 11.1522C16.4906 10.8863 16.3416 10.4231 16.3416 10.0063C16.3416 9.58976 16.4907 9.12646 16.7007 8.86061L17.5599 7.90002C17.9502 7.4659 18.1454 7.24884 18.1737 6.97949C18.202 6.71014 18.0562 6.45712 17.7646 5.95108Z" stroke="currentColor" stroke-width="1.5" stroke-linecap="round"></path>
<path d="M12.9329 9.99992C12.9329 11.6107 11.6271 12.9166 10.0163 12.9166C8.40545 12.9166 7.09961 11.6107 7.09961 9.99992C7.09961 8.38909 8.40545 7.08325 10.0163 7.08325C11.6271 7.08325 12.9329 8.38909 12.9329 9.99992Z" stroke="currentColor" stroke-width="1.5"></path>
</symbol>
<symbol viewBox="0 0 15 15" fill="none" id="cross-1">
  <path     fill-rule="evenodd"
    clip-rule="evenodd"
    d="M12.8536 2.85355C13.0488 2.65829 13.0488 2.34171 12.8536 2.14645C12.6583 1.95118 12.3417 1.95118 12.1464 2.14645L7.5 6.79289L2.85355 2.14645C2.65829 1.95118 2.34171 1.95118 2.14645 2.14645C1.95118 2.34171 1.95118 2.65829 2.14645 2.85355L6.79289 7.5L2.14645 12.1464C1.95118 12.3417 1.95118 12.6583 2.14645 12.8536C2.34171 13.0488 2.65829 13.0488 2.85355 12.8536L7.5 8.20711L12.1464 12.8536C12.3417 13.0488 12.6583 13.0488 12.8536 12.8536C13.0488 12.6583 13.0488 12.3417 12.8536 12.1464L8.20711 7.5L12.8536 2.85355Z"
    fill="currentColor"
  ></path>
</symbol>
<symbol viewBox="0 0 15 15" fill="none" id="cross-2"><path d="M11.7816 4.03157C12.0062 3.80702 12.0062 3.44295 11.7816 3.2184C11.5571 2.99385 11.193 2.99385 10.9685 3.2184L7.50005 6.68682L4.03164 3.2184C3.80708 2.99385 3.44301 2.99385 3.21846 3.2184C2.99391 3.44295 2.99391 3.80702 3.21846 4.03157L6.68688 7.49999L3.21846 10.9684C2.99391 11.193 2.99391 11.557 3.21846 11.7816C3.44301 12.0061 3.80708 12.0061 4.03164 11.7816L7.50005 8.31316L10.9685 11.7816C11.193 12.0061 11.5571 12.0061 11.7816 11.7816C12.0062 11.557 12.0062 11.193 11.7816 10.9684L8.31322 7.49999L11.7816 4.03157Z" fill="currentColor" fill-rule="evenodd" clip-rule="evenodd"></path></symbol>
<symbol viewBox="0 0 15 15" fill="none" id="dots-horizontal">
  <path     fill-rule="evenodd"
    clip-rule="evenodd"
    d="M3.625 7.5C3.625 8.12132 3.12132 8.625 2.5 8.625C1.87868 8.625 1.375 8.12132 1.375 7.5C1.375 6.87868 1.87868 6.375 2.5 6.375C3.12132 6.375 3.625 6.87868 3.625 7.5ZM8.625 7.5C8.625 8.12132 8.12132 8.625 7.5 8.625C6.87868 8.625 6.375 8.12132 6.375 7.5C6.375 6.87868 6.87868 6.375 7.5 6.375C8.12132 6.375 8.625 6.87868 8.625 7.5ZM12.5 8.625C13.1213 8.625 13.625 8.12132 13.625 7.5C13.625 6.87868 13.1213 6.375 12.5 6.375C11.8787 6.375 11.375 6.87868 11.375 7.5C11.375 8.12132 11.8787 8.625 12.5 8.625Z"
    fill="currentColor"
  ></path>
</symbol>
<symbol viewBox="0 0 15 15" fill="none" id="double-arrow-left"><path d="M6.85355 3.85355C7.04882 3.65829 7.04882 3.34171 6.85355 3.14645C6.65829 2.95118 6.34171 2.95118 6.14645 3.14645L2.14645 7.14645C1.95118 7.34171 1.95118 7.65829 2.14645 7.85355L6.14645 11.8536C6.34171 12.0488 6.65829 12.0488 6.85355 11.8536C7.04882 11.6583 7.04882 11.3417 6.85355 11.1464L3.20711 7.5L6.85355 3.85355ZM12.8536 3.85355C13.0488 3.65829 13.0488 3.34171 12.8536 3.14645C12.6583 2.95118 12.3417 2.95118 12.1464 3.14645L8.14645 7.14645C7.95118 7.34171 7.95118 7.65829 8.14645 7.85355L12.1464 11.8536C12.3417 12.0488 12.6583 12.0488 12.8536 11.8536C13.0488 11.6583 13.0488 11.3417 12.8536 11.1464L9.20711 7.5L12.8536 3.85355Z" fill="currentColor" fill-rule="evenodd" clip-rule="evenodd"></path></symbol>
<symbol viewBox="0 0 15 15" fill="none" id="double-arrow-right"><path d="M2.14645 11.1464C1.95118 11.3417 1.95118 11.6583 2.14645 11.8536C2.34171 12.0488 2.65829 12.0488 2.85355 11.8536L6.85355 7.85355C7.04882 7.65829 7.04882 7.34171 6.85355 7.14645L2.85355 3.14645C2.65829 2.95118 2.34171 2.95118 2.14645 3.14645C1.95118 3.34171 1.95118 3.65829 2.14645 3.85355L5.79289 7.5L2.14645 11.1464ZM8.14645 11.1464C7.95118 11.3417 7.95118 11.6583 8.14645 11.8536C8.34171 12.0488 8.65829 12.0488 8.85355 11.8536L12.8536 7.85355C13.0488 7.65829 13.0488 7.34171 12.8536 7.14645L8.85355 3.14645C8.65829 2.95118 8.34171 2.95118 8.14645 3.14645C7.95118 3.34171 7.95118 3.65829 8.14645 3.85355L11.7929 7.5L8.14645 11.1464Z" fill="currentColor" fill-rule="evenodd" clip-rule="evenodd"></path></symbol>
<symbol viewBox="0 0 15 15" fill="none" id="download">
  <path     fill-rule="evenodd"
    clip-rule="evenodd"
    d="M7.50005 1.04999C7.74858 1.04999 7.95005 1.25146 7.95005 1.49999V8.41359L10.1819 6.18179C10.3576 6.00605 10.6425 6.00605 10.8182 6.18179C10.994 6.35753 10.994 6.64245 10.8182 6.81819L7.81825 9.81819C7.64251 9.99392 7.35759 9.99392 7.18185 9.81819L4.18185 6.81819C4.00611 6.64245 4.00611 6.35753 4.18185 6.18179C4.35759 6.00605 4.64251 6.00605 4.81825 6.18179L7.05005 8.41359V1.49999C7.05005 1.25146 7.25152 1.04999 7.50005 1.04999ZM2.5 10C2.77614 10 3 10.2239 3 10.5V12C3 12.5539 3.44565 13 3.99635 13H11.0012C11.5529 13 12 12.5528 12 12V10.5C12 10.2239 12.2239 10 12.5 10C12.7761 10 13 10.2239 13 10.5V12C13 13.1041 12.1062 14 11.0012 14H3.99635C2.89019 14 2 13.103 2 12V10.5C2 10.2239 2.22386 10 2.5 10Z"
    fill="currentColor"
  ></path>
</symbol>
<symbol viewBox="0 0 15 15" fill="none" id="eye-closed"><path d="M14.7649 6.07596C14.9991 6.22231 15.0703 6.53079 14.9239 6.76495C14.4849 7.46743 13.9632 8.10645 13.3702 8.66305L14.5712 9.86406C14.7664 10.0593 14.7664 10.3759 14.5712 10.5712C14.3759 10.7664 14.0593 10.7664 13.8641 10.5712L12.6011 9.30817C11.805 9.90283 10.9089 10.3621 9.93375 10.651L10.383 12.3277C10.4544 12.5944 10.2961 12.8685 10.0294 12.94C9.76267 13.0115 9.4885 12.8532 9.41704 12.5865L8.95917 10.8775C8.48743 10.958 8.00036 10.9999 7.50001 10.9999C6.99965 10.9999 6.51257 10.958 6.04082 10.8775L5.58299 12.5864C5.51153 12.8532 5.23737 13.0115 4.97064 12.94C4.7039 12.8686 4.5456 12.5944 4.61706 12.3277L5.06625 10.651C4.09111 10.3621 3.19503 9.90282 2.3989 9.30815L1.1359 10.5712C0.940638 10.7664 0.624058 10.7664 0.428798 10.5712C0.233537 10.3759 0.233537 10.0593 0.428798 9.86405L1.62982 8.66303C1.03682 8.10643 0.515113 7.46742 0.0760677 6.76495C-0.0702867 6.53079 0.000898544 6.22231 0.235065 6.07596C0.469231 5.9296 0.777703 6.00079 0.924058 6.23496C1.40354 7.00213 1.989 7.68057 2.66233 8.2427C2.67315 8.25096 2.6837 8.25972 2.69397 8.26898C4.00897 9.35527 5.65537 9.99991 7.50001 9.99991C10.3078 9.99991 12.6564 8.5063 14.076 6.23495C14.2223 6.00079 14.5308 5.9296 14.7649 6.07596Z" fill="currentColor" fill-rule="evenodd" clip-rule="evenodd"></path></symbol>
<symbol viewBox="0 0 15 15" fill="none" id="eye-open"><path d="M7.5 11C4.80285 11 2.52952 9.62184 1.09622 7.50001C2.52952 5.37816 4.80285 4 7.5 4C10.1971 4 12.4705 5.37816 13.9038 7.50001C12.4705 9.62183 10.1971 11 7.5 11ZM7.5 3C4.30786 3 1.65639 4.70638 0.0760002 7.23501C-0.0253338 7.39715 -0.0253334 7.60288 0.0760014 7.76501C1.65639 10.2936 4.30786 12 7.5 12C10.6921 12 13.3436 10.2936 14.924 7.76501C15.0253 7.60288 15.0253 7.39715 14.924 7.23501C13.3436 4.70638 10.6921 3 7.5 3ZM7.5 9.5C8.60457 9.5 9.5 8.60457 9.5 7.5C9.5 6.39543 8.60457 5.5 7.5 5.5C6.39543 5.5 5.5 6.39543 5.5 7.5C5.5 8.60457 6.39543 9.5 7.5 9.5Z" fill="currentColor" fill-rule="evenodd" clip-rule="evenodd"></path></symbol>
<symbol viewBox="0 0 15 15" fill="none" id="file"><path d="M3.5 2C3.22386 2 3 2.22386 3 2.5V12.5C3 12.7761 3.22386 13 3.5 13H11.5C11.7761 13 12 12.7761 12 12.5V6H8.5C8.22386 6 8 5.77614 8 5.5V2H3.5ZM9 2.70711L11.2929 5H9V2.70711ZM2 2.5C2 1.67157 2.67157 1 3.5 1H8.5C8.63261 1 8.75979 1.05268 8.85355 1.14645L12.8536 5.14645C12.9473 5.24021 13 5.36739 13 5.5V12.5C13 13.3284 12.3284 14 11.5 14H3.5C2.67157 14 2 13.3284 2 12.5V2.5Z" fill="currentColor" fill-rule="evenodd" clip-rule="evenodd"></path></symbol>
<symbol viewBox="0 0 15 15" fill="none" id="github-logo">
  <path     fill-rule="evenodd"
    clip-rule="evenodd"
    d="M7.49933 0.25C3.49635 0.25 0.25 3.49593 0.25 7.50024C0.25 10.703 2.32715 13.4206 5.2081 14.3797C5.57084 14.446 5.70302 14.2222 5.70302 14.0299C5.70302 13.8576 5.69679 13.4019 5.69323 12.797C3.67661 13.235 3.25112 11.825 3.25112 11.825C2.92132 10.9874 2.44599 10.7644 2.44599 10.7644C1.78773 10.3149 2.49584 10.3238 2.49584 10.3238C3.22353 10.375 3.60629 11.0711 3.60629 11.0711C4.25298 12.1788 5.30335 11.8588 5.71638 11.6732C5.78225 11.205 5.96962 10.8854 6.17658 10.7043C4.56675 10.5209 2.87415 9.89918 2.87415 7.12104C2.87415 6.32925 3.15677 5.68257 3.62053 5.17563C3.54576 4.99226 3.29697 4.25521 3.69174 3.25691C3.69174 3.25691 4.30015 3.06196 5.68522 3.99973C6.26337 3.83906 6.8838 3.75895 7.50022 3.75583C8.1162 3.75895 8.73619 3.83906 9.31523 3.99973C10.6994 3.06196 11.3069 3.25691 11.3069 3.25691C11.7026 4.25521 11.4538 4.99226 11.3795 5.17563C11.8441 5.68257 12.1245 6.32925 12.1245 7.12104C12.1245 9.9063 10.4292 10.5192 8.81452 10.6985C9.07444 10.9224 9.30633 11.3648 9.30633 12.0413C9.30633 13.0102 9.29742 13.7922 9.29742 14.0299C9.29742 14.2239 9.42828 14.4496 9.79591 14.3788C12.6746 13.4179 14.75 10.7025 14.75 7.50024C14.75 3.49593 11.5036 0.25 7.49933 0.25Z"
    fill="currentColor"
  ></path>
</symbol>
<symbol viewBox="0 0 24 25" fill="none" id="google-icon">
<g clip-path="url(#clip0_463_4752)">
<path d="M23.766 12.994C23.766 12.1783 23.6999 11.3582 23.5588 10.5557H12.24V15.1766H18.7217C18.4528 16.667 17.5885 17.9854 16.323 18.8232V21.8215H20.19C22.4608 19.7315 23.766 16.645 23.766 12.994Z" fill="#4285F4"></path>
<path d="M12.24 24.7184C15.4764 24.7184 18.2058 23.6557 20.1944 21.8214L16.3274 18.8231C15.2516 19.555 13.8626 19.9695 12.2444 19.9695C9.11376 19.9695 6.45934 17.8574 5.50693 15.0178H1.51648V18.1088C3.55359 22.1609 7.70278 24.7184 12.24 24.7184Z" fill="#34A853"></path>
<path d="M5.50253 15.0177C4.99987 13.5274 4.99987 11.9136 5.50253 10.4232V7.33228H1.51649C-0.18551 10.7231 -0.18551 14.7179 1.51649 18.1087L5.50253 15.0177Z" fill="#FBBC04"></path>
<path d="M12.24 5.46719C13.9508 5.44073 15.6043 6.0845 16.8433 7.2662L20.2694 3.84015C18.1 1.80303 15.2207 0.683063 12.24 0.718338C7.70277 0.718338 3.55359 3.27575 1.51648 7.33234L5.50252 10.4233C6.45052 7.57926 9.10935 5.46719 12.24 5.46719Z" fill="#EA4335"></path>
</g>
<defs>
<clipPath id="clip0_463_4752">
<rect width="24" height="24" fill="white" transform="translate(0 0.717529)"></rect>
</clipPath>
</defs>
</symbol>
<symbol viewBox="0 0 15 15" fill="none" id="hamburger"><path d="M1.5 3C1.22386 3 1 3.22386 1 3.5C1 3.77614 1.22386 4 1.5 4H13.5C13.7761 4 14 3.77614 14 3.5C14 3.22386 13.7761 3 13.5 3H1.5ZM1 7.5C1 7.22386 1.22386 7 1.5 7H13.5C13.7761 7 14 7.22386 14 7.5C14 7.77614 13.7761 8 13.5 8H1.5C1.22386 8 1 7.77614 1 7.5ZM1 11.5C1 11.2239 1.22386 11 1.5 11H13.5C13.7761 11 14 11.2239 14 11.5C14 11.7761 13.7761 12 13.5 12H1.5C1.22386 12 1 11.7761 1 11.5Z" fill="currentColor" fill-rule="evenodd" clip-rule="evenodd"></path></symbol>
<symbol viewBox="0 0 20 20" fill="none" id="home">
<g clip-path="url(#clip0_457_5017)">
<path d="M10.0001 15L10.0001 12.5" stroke="currentColor" stroke-width="1.5" stroke-linecap="round"></path>
<path d="M1.95957 11.0112C1.66539 9.09683 1.5183 8.13966 1.88022 7.29111C2.24214 6.44256 3.0451 5.86199 4.65103 4.70084L5.8509 3.83329C7.84866 2.38885 8.84753 1.66663 10.0001 1.66663C11.1526 1.66663 12.1515 2.38885 14.1493 3.83329L15.3491 4.70084C16.9551 5.86199 17.758 6.44256 18.1199 7.29111C18.4819 8.13966 18.3348 9.09683 18.0406 11.0112L17.7897 12.6436C17.3727 15.3574 17.1642 16.7143 16.1909 17.5238C15.2177 18.3333 13.7948 18.3333 10.9491 18.3333H9.05107C6.20536 18.3333 4.7825 18.3333 3.80925 17.5238C2.83599 16.7143 2.62747 15.3574 2.21044 12.6436L1.95957 11.0112Z" stroke="currentColor" stroke-width="1.5" stroke-linejoin="round"></path>
</g>
<defs>
<clipPath id="clip0_457_5017">
<rect width="20" height="20" fill="currentColor"></rect>
</clipPath>
</defs>
</symbol>
<symbol viewBox="0 0 15 15" fill="none" id="link-2">
  <path     fill-rule="evenodd"
    clip-rule="evenodd"
    d="M8.51194 3.00541C9.18829 2.54594 10.0435 2.53694 10.6788 2.95419C10.8231 3.04893 10.9771 3.1993 11.389 3.61119C11.8009 4.02307 11.9513 4.17714 12.046 4.32141C12.4633 4.95675 12.4543 5.81192 11.9948 6.48827C11.8899 6.64264 11.7276 6.80811 11.3006 7.23511L10.6819 7.85383C10.4867 8.04909 10.4867 8.36567 10.6819 8.56093C10.8772 8.7562 11.1938 8.7562 11.389 8.56093L12.0077 7.94221L12.0507 7.89929C12.4203 7.52976 12.6568 7.2933 12.822 7.0502C13.4972 6.05623 13.5321 4.76252 12.8819 3.77248C12.7233 3.53102 12.4922 3.30001 12.1408 2.94871L12.0961 2.90408L12.0515 2.85942C11.7002 2.508 11.4692 2.27689 11.2277 2.11832C10.2377 1.46813 8.94398 1.50299 7.95001 2.17822C7.70691 2.34336 7.47044 2.57991 7.1009 2.94955L7.058 2.99247L6.43928 3.61119C6.24401 3.80645 6.24401 4.12303 6.43928 4.31829C6.63454 4.51355 6.95112 4.51355 7.14638 4.31829L7.7651 3.69957C8.1921 3.27257 8.35757 3.11027 8.51194 3.00541ZM4.31796 7.14672C4.51322 6.95146 4.51322 6.63487 4.31796 6.43961C4.12269 6.24435 3.80611 6.24435 3.61085 6.43961L2.99213 7.05833L2.94922 7.10124C2.57957 7.47077 2.34303 7.70724 2.17788 7.95035C1.50265 8.94432 1.4678 10.238 2.11799 11.2281C2.27656 11.4695 2.50766 11.7005 2.8591 12.0518L2.90374 12.0965L2.94837 12.1411C3.29967 12.4925 3.53068 12.7237 3.77214 12.8822C4.76219 13.5324 6.05589 13.4976 7.04986 12.8223C7.29296 12.6572 7.52943 12.4206 7.89896 12.051L7.89897 12.051L7.94188 12.0081L8.5606 11.3894C8.75586 11.1941 8.75586 10.8775 8.5606 10.6823C8.36533 10.487 8.04875 10.487 7.85349 10.6823L7.23477 11.301C6.80777 11.728 6.6423 11.8903 6.48794 11.9951C5.81158 12.4546 4.95642 12.4636 4.32107 12.0464C4.17681 11.9516 4.02274 11.8012 3.61085 11.3894C3.19896 10.9775 3.0486 10.8234 2.95385 10.6791C2.53661 10.0438 2.54561 9.18863 3.00507 8.51227C3.10993 8.35791 3.27224 8.19244 3.69924 7.76544L4.31796 7.14672ZM9.62172 6.08558C9.81698 5.89032 9.81698 5.57373 9.62172 5.37847C9.42646 5.18321 9.10988 5.18321 8.91461 5.37847L5.37908 8.91401C5.18382 9.10927 5.18382 9.42585 5.37908 9.62111C5.57434 9.81637 5.89092 9.81637 6.08619 9.62111L9.62172 6.08558Z"
    fill="currentColor"
  ></path>
</symbol>
<symbol viewBox="0 0 15 15" fill="none" id="magnifying-glass">
  <path     fill-rule="evenodd"
    clip-rule="evenodd"
    d="M10 6.5C10 8.433 8.433 10 6.5 10C4.567 10 3 8.433 3 6.5C3 4.567 4.567 3 6.5 3C8.433 3 10 4.567 10 6.5ZM9.30884 10.0159C8.53901 10.6318 7.56251 11 6.5 11C4.01472 11 2 8.98528 2 6.5C2 4.01472 4.01472 2 6.5 2C8.98528 2 11 4.01472 11 6.5C11 7.56251 10.6318 8.53901 10.0159 9.30884L12.8536 12.1464C13.0488 12.3417 13.0488 12.6583 12.8536 12.8536C12.6583 13.0488 12.3417 13.0488 12.1464 12.8536L9.30884 10.0159Z"
    fill="currentColor"
  ></path>
</symbol>
<symbol viewBox="0 0 20 20" fill="none" id="map">
<path d="M12.0834 7.91675H12.0909" stroke="currentColor" stroke-width="2" stroke-linecap="round" stroke-linejoin="round"></path>
<path d="M12.0834 5C13.6618 5 15.0001 6.34433 15.0001 7.97526C15.0001 9.63216 13.64 10.7949 12.3838 11.5856C12.2923 11.6387 12.1888 11.6667 12.0834 11.6667C11.9781 11.6667 11.8745 11.6387 11.783 11.5856C10.5291 10.7872 9.16675 9.63789 9.16675 7.97526C9.16675 6.34433 10.505 5 12.0834 5Z" stroke="currentColor" stroke-width="1.5"></path>
<path d="M2.08337 10C2.08337 6.26809 2.08337 4.40211 3.24274 3.24274C4.40211 2.08337 6.26809 2.08337 10 2.08337C13.732 2.08337 15.598 2.08337 16.7573 3.24274C17.9167 4.40211 17.9167 6.26809 17.9167 10C17.9167 13.732 17.9167 15.598 16.7573 16.7573C15.598 17.9167 13.732 17.9167 10 17.9167C6.26809 17.9167 4.40211 17.9167 3.24274 16.7573C2.08337 15.598 2.08337 13.732 2.08337 10Z" stroke="currentColor" stroke-width="1.5"></path>
<path d="M14.1667 17.5L2.5 5.83337" stroke="currentColor" stroke-width="1.5" stroke-linecap="round" stroke-linejoin="round"></path>
<path d="M8.33337 11.6667L3.33337 16.6667" stroke="currentColor" stroke-width="1.5" stroke-linecap="round" stroke-linejoin="round"></path>
</symbol>
<symbol viewBox="0 0 15 15" fill="none" id="pencil-1">
  <path     fill-rule="evenodd"
    clip-rule="evenodd"
    d="M11.8536 1.14645C11.6583 0.951184 11.3417 0.951184 11.1465 1.14645L3.71455 8.57836C3.62459 8.66832 3.55263 8.77461 3.50251 8.89155L2.04044 12.303C1.9599 12.491 2.00189 12.709 2.14646 12.8536C2.29103 12.9981 2.50905 13.0401 2.69697 12.9596L6.10847 11.4975C6.2254 11.4474 6.3317 11.3754 6.42166 11.2855L13.8536 3.85355C14.0488 3.65829 14.0488 3.34171 13.8536 3.14645L11.8536 1.14645ZM4.42166 9.28547L11.5 2.20711L12.7929 3.5L5.71455 10.5784L4.21924 11.2192L3.78081 10.7808L4.42166 9.28547Z"
    fill="currentColor"
  ></path>
</symbol>
<symbol viewBox="0 0 15 15" fill="none" id="pencil-2">
  <path     fill-rule="evenodd"
    clip-rule="evenodd"
    d="M12.1464 1.14645C12.3417 0.951184 12.6583 0.951184 12.8535 1.14645L14.8535 3.14645C15.0488 3.34171 15.0488 3.65829 14.8535 3.85355L10.9109 7.79618C10.8349 7.87218 10.7471 7.93543 10.651 7.9835L6.72359 9.94721C6.53109 10.0435 6.29861 10.0057 6.14643 9.85355C5.99425 9.70137 5.95652 9.46889 6.05277 9.27639L8.01648 5.34897C8.06455 5.25283 8.1278 5.16507 8.2038 5.08907L12.1464 1.14645ZM12.5 2.20711L8.91091 5.79618L7.87266 7.87267L8.12731 8.12732L10.2038 7.08907L13.7929 3.5L12.5 2.20711ZM9.99998 2L8.99998 3H4.9C4.47171 3 4.18056 3.00039 3.95552 3.01877C3.73631 3.03668 3.62421 3.06915 3.54601 3.10899C3.35785 3.20487 3.20487 3.35785 3.10899 3.54601C3.06915 3.62421 3.03669 3.73631 3.01878 3.95552C3.00039 4.18056 3 4.47171 3 4.9V11.1C3 11.5283 3.00039 11.8194 3.01878 12.0445C3.03669 12.2637 3.06915 12.3758 3.10899 12.454C3.20487 12.6422 3.35785 12.7951 3.54601 12.891C3.62421 12.9309 3.73631 12.9633 3.95552 12.9812C4.18056 12.9996 4.47171 13 4.9 13H11.1C11.5283 13 11.8194 12.9996 12.0445 12.9812C12.2637 12.9633 12.3758 12.9309 12.454 12.891C12.6422 12.7951 12.7951 12.6422 12.891 12.454C12.9309 12.3758 12.9633 12.2637 12.9812 12.0445C12.9996 11.8194 13 11.5283 13 11.1V6.99998L14 5.99998V11.1V11.1207C14 11.5231 14 11.8553 13.9779 12.1259C13.9549 12.407 13.9057 12.6653 13.782 12.908C13.5903 13.2843 13.2843 13.5903 12.908 13.782C12.6653 13.9057 12.407 13.9549 12.1259 13.9779C11.8553 14 11.5231 14 11.1207 14H11.1H4.9H4.87934C4.47686 14 4.14468 14 3.87409 13.9779C3.59304 13.9549 3.33469 13.9057 3.09202 13.782C2.7157 13.5903 2.40973 13.2843 2.21799 12.908C2.09434 12.6653 2.04506 12.407 2.0221 12.1259C1.99999 11.8553 1.99999 11.5231 2 11.1207V11.1206V11.1V4.9V4.87935V4.87932V4.87931C1.99999 4.47685 1.99999 4.14468 2.0221 3.87409C2.04506 3.59304 2.09434 3.33469 2.21799 3.09202C2.40973 2.71569 2.7157 2.40973 3.09202 2.21799C3.33469 2.09434 3.59304 2.04506 3.87409 2.0221C4.14468 1.99999 4.47685 1.99999 4.87932 2H4.87935H4.9H9.99998Z"
    fill="currentColor"
  ></path>
</symbol>
<symbol viewBox="0 0 15 15" fill="none" id="plus">
  <path     fill-rule="evenodd"
    clip-rule="evenodd"
    d="M8 2.75C8 2.47386 7.77614 2.25 7.5 2.25C7.22386 2.25 7 2.47386 7 2.75V7H2.75C2.47386 7 2.25 7.22386 2.25 7.5C2.25 7.77614 2.47386 8 2.75 8H7V12.25C7 12.5261 7.22386 12.75 7.5 12.75C7.77614 12.75 8 12.5261 8 12.25V8H12.25C12.5261 8 12.75 7.77614 12.75 7.5C12.75 7.22386 12.5261 7 12.25 7H8V2.75Z"
    fill="currentColor"
  ></path>
</symbol>
<symbol viewBox="0 0 15 15" fill="none" id="question-mark-circled">
  <path     fill-rule="evenodd"
    clip-rule="evenodd"
    d="M0.877075 7.49972C0.877075 3.84204 3.84222 0.876892 7.49991 0.876892C11.1576 0.876892 14.1227 3.84204 14.1227 7.49972C14.1227 11.1574 11.1576 14.1226 7.49991 14.1226C3.84222 14.1226 0.877075 11.1574 0.877075 7.49972ZM7.49991 1.82689C4.36689 1.82689 1.82708 4.36671 1.82708 7.49972C1.82708 10.6327 4.36689 13.1726 7.49991 13.1726C10.6329 13.1726 13.1727 10.6327 13.1727 7.49972C13.1727 4.36671 10.6329 1.82689 7.49991 1.82689ZM8.24993 10.5C8.24993 10.9142 7.91414 11.25 7.49993 11.25C7.08571 11.25 6.74993 10.9142 6.74993 10.5C6.74993 10.0858 7.08571 9.75 7.49993 9.75C7.91414 9.75 8.24993 10.0858 8.24993 10.5ZM6.05003 6.25C6.05003 5.57211 6.63511 4.925 7.50003 4.925C8.36496 4.925 8.95003 5.57211 8.95003 6.25C8.95003 6.74118 8.68002 6.99212 8.21447 7.27494C8.16251 7.30651 8.10258 7.34131 8.03847 7.37854L8.03841 7.37858C7.85521 7.48497 7.63788 7.61119 7.47449 7.73849C7.23214 7.92732 6.95003 8.23198 6.95003 8.7C6.95004 9.00376 7.19628 9.25 7.50004 9.25C7.8024 9.25 8.04778 9.00601 8.05002 8.70417L8.05056 8.7033C8.05924 8.6896 8.08493 8.65735 8.15058 8.6062C8.25207 8.52712 8.36508 8.46163 8.51567 8.37436L8.51571 8.37433C8.59422 8.32883 8.68296 8.27741 8.78559 8.21506C9.32004 7.89038 10.05 7.35382 10.05 6.25C10.05 4.92789 8.93511 3.825 7.50003 3.825C6.06496 3.825 4.95003 4.92789 4.95003 6.25C4.95003 6.55376 5.19628 6.8 5.50003 6.8C5.80379 6.8 6.05003 6.55376 6.05003 6.25Z"
    fill="currentColor"
  ></path>
</symbol>
<symbol viewBox="0 0 15 15" fill="none" id="reset">
  <path     fill-rule="evenodd"
    clip-rule="evenodd"
    d="M4.85355 2.14645C5.04882 2.34171 5.04882 2.65829 4.85355 2.85355L3.70711 4H9C11.4853 4 13.5 6.01472 13.5 8.5C13.5 10.9853 11.4853 13 9 13H5C4.72386 13 4.5 12.7761 4.5 12.5C4.5 12.2239 4.72386 12 5 12H9C10.933 12 12.5 10.433 12.5 8.5C12.5 6.567 10.933 5 9 5H3.70711L4.85355 6.14645C5.04882 6.34171 5.04882 6.65829 4.85355 6.85355C4.65829 7.04882 4.34171 7.04882 4.14645 6.85355L2.14645 4.85355C1.95118 4.65829 1.95118 4.34171 2.14645 4.14645L4.14645 2.14645C4.34171 1.95118 4.65829 1.95118 4.85355 2.14645Z"
    fill="currentColor"
  ></path>
</symbol>
<symbol viewBox="0 0 20 20" fill="none" id="school-bus">
<g clip-path="url(#clip0_457_5029)">
<path d="M14.5833 15.8333V18.3333" stroke="currentColor" stroke-width="1.5" stroke-linecap="round" stroke-linejoin="round"></path>
<path d="M5.41663 15.8333V18.3333" stroke="currentColor" stroke-width="1.5" stroke-linecap="round" stroke-linejoin="round"></path>
<path d="M3.33325 8.33329C3.33325 5.1906 3.33325 3.61925 4.30956 2.64294C5.28587 1.66663 6.85722 1.66663 9.99992 1.66663C13.1426 1.66663 14.714 1.66663 15.6903 2.64294C16.6666 3.61925 16.6666 5.1906 16.6666 8.33329V10.8333C16.6666 13.1903 16.6666 14.3688 15.9344 15.1011C15.2021 15.8333 14.0236 15.8333 11.6666 15.8333H8.33325C5.97623 15.8333 4.79772 15.8333 4.06548 15.1011C3.33325 14.3688 3.33325 13.1903 3.33325 10.8333V8.33329Z" stroke="currentColor" stroke-width="1.5" stroke-linejoin="round"></path>
<path d="M5.83325 13.3333H6.66658" stroke="currentColor" stroke-width="1.5" stroke-linecap="round" stroke-linejoin="round"></path>
<path d="M13.3333 13.3333H14.1666" stroke="currentColor" stroke-width="1.5" stroke-linecap="round" stroke-linejoin="round"></path>
<path d="M1.66663 6.66663L1.66663 8.33329" stroke="currentColor" stroke-width="1.5" stroke-linecap="round" stroke-linejoin="round"></path>
<path d="M18.3333 6.66663L18.3333 8.33329" stroke="currentColor" stroke-width="1.5" stroke-linecap="round" stroke-linejoin="round"></path>
<path d="M3.75 4.16663L16.25 4.16663" stroke="currentColor" stroke-width="1.5" stroke-linecap="round"></path>
<path d="M3.75 10.8333L16.25 10.8333" stroke="currentColor" stroke-width="1.5" stroke-linecap="round"></path>
<path d="M10 10.8333V4.16663" stroke="currentColor" stroke-width="1.5" stroke-linecap="round" stroke-linejoin="round"></path>
</g>
<defs>
<clipPath id="clip0_457_5029">
<rect width="20" height="20" fill="white"></rect>
</clipPath>
</defs>
</symbol>
<symbol viewBox="0 0 15 15" fill="none" id="trash">
  <path     fill-rule="evenodd"
    clip-rule="evenodd"
    d="M5.5 1C5.22386 1 5 1.22386 5 1.5C5 1.77614 5.22386 2 5.5 2H9.5C9.77614 2 10 1.77614 10 1.5C10 1.22386 9.77614 1 9.5 1H5.5ZM3 3.5C3 3.22386 3.22386 3 3.5 3H5H10H11.5C11.7761 3 12 3.22386 12 3.5C12 3.77614 11.7761 4 11.5 4H11V12C11 12.5523 10.5523 13 10 13H5C4.44772 13 4 12.5523 4 12V4L3.5 4C3.22386 4 3 3.77614 3 3.5ZM5 4H10V12H5V4Z"
    fill="currentColor"
  ></path>
</symbol>
<symbol viewBox="0 0 15 15" fill="none" id="update">
  <path     fill-rule="evenodd"
    clip-rule="evenodd"
    d="M1.90321 7.29677C1.90321 10.341 4.11041 12.4147 6.58893 12.8439C6.87255 12.893 7.06266 13.1627 7.01355 13.4464C6.96444 13.73 6.69471 13.9201 6.41109 13.871C3.49942 13.3668 0.86084 10.9127 0.86084 7.29677C0.860839 5.76009 1.55996 4.55245 2.37639 3.63377C2.96124 2.97568 3.63034 2.44135 4.16846 2.03202L2.53205 2.03202C2.25591 2.03202 2.03205 1.80816 2.03205 1.53202C2.03205 1.25588 2.25591 1.03202 2.53205 1.03202L5.53205 1.03202C5.80819 1.03202 6.03205 1.25588 6.03205 1.53202L6.03205 4.53202C6.03205 4.80816 5.80819 5.03202 5.53205 5.03202C5.25591 5.03202 5.03205 4.80816 5.03205 4.53202L5.03205 2.68645L5.03054 2.68759L5.03045 2.68766L5.03044 2.68767L5.03043 2.68767C4.45896 3.11868 3.76059 3.64538 3.15554 4.3262C2.44102 5.13021 1.90321 6.10154 1.90321 7.29677ZM13.0109 7.70321C13.0109 4.69115 10.8505 2.6296 8.40384 2.17029C8.12093 2.11718 7.93465 1.84479 7.98776 1.56188C8.04087 1.27898 8.31326 1.0927 8.59616 1.14581C11.4704 1.68541 14.0532 4.12605 14.0532 7.70321C14.0532 9.23988 13.3541 10.4475 12.5377 11.3662C11.9528 12.0243 11.2837 12.5586 10.7456 12.968L12.3821 12.968C12.6582 12.968 12.8821 13.1918 12.8821 13.468C12.8821 13.7441 12.6582 13.968 12.3821 13.968L9.38205 13.968C9.10591 13.968 8.88205 13.7441 8.88205 13.468L8.88205 10.468C8.88205 10.1918 9.10591 9.96796 9.38205 9.96796C9.65819 9.96796 9.88205 10.1918 9.88205 10.468L9.88205 12.3135L9.88362 12.3123C10.4551 11.8813 11.1535 11.3546 11.7585 10.6738C12.4731 9.86976 13.0109 8.89844 13.0109 7.70321Z"
    fill="currentColor"
  ></path>
</symbol>
<symbol viewBox="0 0 15 15" fill="none" id="upload"><path d="M7.81825 1.18188C7.64251 1.00615 7.35759 1.00615 7.18185 1.18188L4.18185 4.18188C4.00611 4.35762 4.00611 4.64254 4.18185 4.81828C4.35759 4.99401 4.64251 4.99401 4.81825 4.81828L7.05005 2.58648V9.49996C7.05005 9.74849 7.25152 9.94996 7.50005 9.94996C7.74858 9.94996 7.95005 9.74849 7.95005 9.49996V2.58648L10.1819 4.81828C10.3576 4.99401 10.6425 4.99401 10.8182 4.81828C10.994 4.64254 10.994 4.35762 10.8182 4.18188L7.81825 1.18188ZM2.5 9.99997C2.77614 9.99997 3 10.2238 3 10.5V12C3 12.5538 3.44565 13 3.99635 13H11.0012C11.5529 13 12 12.5528 12 12V10.5C12 10.2238 12.2239 9.99997 12.5 9.99997C12.7761 9.99997 13 10.2238 13 10.5V12C13 13.104 12.1062 14 11.0012 14H3.99635C2.89019 14 2 13.103 2 12V10.5C2 10.2238 2.22386 9.99997 2.5 9.99997Z" fill="currentColor" fill-rule="evenodd" clip-rule="evenodd"></path></symbol>
<symbol viewBox="0 0 20 20" fill="none" id="user-2">
<g clip-path="url(#clip0_457_5023)">
<path d="M1.66663 9.16663C3.60971 7.13148 6.36932 7.03565 8.33329 9.16663M7.0792 3.74996C7.0792 4.90055 6.14514 5.83329 4.9929 5.83329C3.84067 5.83329 2.9066 4.90055 2.9066 3.74996C2.9066 2.59937 3.84067 1.66663 4.9929 1.66663C6.14514 1.66663 7.0792 2.59937 7.0792 3.74996Z" stroke="currentColor" stroke-width="1.5" stroke-linecap="round"></path>
<path d="M11.6666 18.3333C13.6097 16.2981 16.3693 16.2023 18.3333 18.3333M17.0792 12.9166C17.0792 14.0672 16.1451 14.9999 14.9929 14.9999C13.8407 14.9999 12.9066 14.0672 12.9066 12.9166C12.9066 11.766 13.8407 10.8333 14.9929 10.8333C16.1451 10.8333 17.0792 11.766 17.0792 12.9166Z" stroke="currentColor" stroke-width="1.5" stroke-linecap="round"></path>
<path d="M2.5 11.6667C2.5 14.8917 5.10833 17.5 8.33333 17.5L7.5 15.8333" stroke="currentColor" stroke-width="1.5" stroke-linecap="round" stroke-linejoin="round"></path>
<path d="M12.5 2.5H17.5M12.5 5H17.5M12.5 7.5H15.4167" stroke="currentColor" stroke-width="1.5" stroke-linecap="round" stroke-linejoin="round"></path>
</g>
<defs>
<clipPath id="clip0_457_5023">
<rect width="20" height="20" fill="white"></rect>
</clipPath>
</defs>
</symbol>
<symbol viewBox="0 0 20 20" fill="none" id="user-group">
<path d="M17.3116 15C17.936 15 18.4327 14.6071 18.8786 14.0576C19.7915 12.9329 18.2927 12.034 17.721 11.5938C17.1399 11.1463 16.4911 10.8928 15.8332 10.8333M14.9999 9.16667C16.1505 9.16667 17.0832 8.23393 17.0832 7.08333C17.0832 5.93274 16.1505 5 14.9999 5" stroke="currentColor" stroke-width="1.5" stroke-linecap="round"></path>
<path d="M2.68822 15C2.0638 15 1.56714 14.6071 1.12121 14.0576C0.208326 12.9329 1.70714 12.034 2.27879 11.5938C2.8599 11.1463 3.50874 10.8928 4.16659 10.8333M4.58325 9.16667C3.43266 9.16667 2.49992 8.23393 2.49992 7.08333C2.49992 5.93274 3.43266 5 4.58325 5" stroke="currentColor" stroke-width="1.5" stroke-linecap="round"></path>
<path d="M6.73642 12.5927C5.88494 13.1192 3.65241 14.1943 5.01217 15.5396C5.6764 16.1968 6.41619 16.6667 7.34627 16.6667H12.6536C13.5837 16.6667 14.3234 16.1968 14.9877 15.5396C16.3474 14.1943 14.1149 13.1192 13.2634 12.5927C11.2667 11.3581 8.73313 11.3581 6.73642 12.5927Z" stroke="currentColor" stroke-width="1.5" stroke-linecap="round" stroke-linejoin="round"></path>
<path d="M12.9166 6.25004C12.9166 7.86087 11.6107 9.16671 9.99992 9.16671C8.38909 9.16671 7.08325 7.86087 7.08325 6.25004C7.08325 4.63921 8.38909 3.33337 9.99992 3.33337C11.6107 3.33337 12.9166 4.63921 12.9166 6.25004Z" stroke="currentColor" stroke-width="1.5"></path>
</symbol>
<symbol viewBox="0 0 18 16" fill="none" id="user">
<g opacity="0.4">
<path d="M10.8071 7.17786C10.6558 7.39997 10.5802 7.51103 10.6089 7.62096C10.6376 7.73088 10.7383 7.78112 10.9398 7.88158C11.3591 8.09065 11.832 8.20825 12.3324 8.20825C14.0583 8.20825 15.4574 6.80914 15.4574 5.08325C15.4574 3.35736 14.0583 1.95825 12.3324 1.95825C12.1442 1.95825 11.9599 1.97489 11.7808 2.00678C11.5591 2.04626 11.4483 2.066 11.3897 2.16348C11.3312 2.26097 11.3726 2.389 11.4554 2.64506C11.619 3.15058 11.7074 3.68993 11.7074 4.24992C11.7074 5.33549 11.3753 6.34349 10.8071 7.17786Z" fill="currentColor"></path>
<path d="M14.5693 14.875C15.6959 14.875 16.5723 14.3937 17.301 13.793C17.7328 13.4369 18.0157 12.9784 17.9474 12.4375C17.8861 11.9517 17.5577 11.5901 17.2744 11.3501C16.8102 10.9569 16.1331 10.6268 15.7064 10.4188C15.6122 10.3728 15.5302 10.3328 15.4654 10.2994C14.634 9.87102 13.7193 9.60627 12.785 9.50518C12.1824 9.43999 11.8811 9.40739 11.8123 9.58733C11.7434 9.76727 12.0117 9.96004 12.5482 10.3456C12.752 10.492 12.9492 10.6489 13.1222 10.8122C13.5116 11.1798 14.0826 11.8414 14.1903 12.7911C14.2402 13.2312 14.1824 13.6367 14.0525 14.0031C13.8977 14.4394 13.8204 14.6575 13.8873 14.7609C13.8916 14.7675 13.8942 14.7712 13.899 14.7774C13.974 14.875 14.1724 14.875 14.5693 14.875Z" fill="currentColor"></path>
</g>
<path d="M10.5888 10.6124L10.5889 10.6124C11.0491 10.8626 11.7711 11.2549 12.265 11.7211C12.5725 12.0114 12.8906 12.4165 12.949 12.9318C13.0122 13.4893 12.7555 13.9926 12.2943 14.4164C11.5201 15.1276 10.5787 15.7083 9.35778 15.7083H3.64224C2.42129 15.7083 1.47995 15.1276 0.70576 14.4164C0.244528 13.9926 -0.0122165 13.4893 0.0509806 12.9318C0.109385 12.4165 0.427506 12.0114 0.735034 11.7211C1.22894 11.2549 1.95089 10.8626 2.41116 10.6124L2.41116 10.6124C2.51364 10.5567 2.60314 10.5081 2.67427 10.4672C5.01729 9.12193 7.98273 9.12192 10.3258 10.4672C10.3969 10.5081 10.4864 10.5567 10.5888 10.6124Z" fill="currentColor"></path>
<path d="M2.5415 4.24996C2.5415 2.06383 4.31371 0.291626 6.49984 0.291626C8.68596 0.291626 10.4582 2.06383 10.4582 4.24996C10.4582 6.43609 8.68596 8.20829 6.49984 8.20829C4.31371 8.20829 2.5415 6.43609 2.5415 4.24996Z" fill="currentColor"></path>
</symbol>
</defs>
</svg>
